<svg xmlns="http://www.w3.org/2000/svg" viewBox="0 0 1200 24" role="img" aria-labelledby="t" font-family="ui-monospace, SFMono-Regular, 'SF Mono', Menlo, Consolas, 'Liberation Mono', monospace">
<title id="t">section divider</title>
<defs><linearGradient id="fade" gradientUnits="userSpaceOnUse" x1="0" y1="0" x2="1200" y2="0">
<stop offset="0" stop-color="#d0d7de" stop-opacity="0"/>
<stop offset="0.18" stop-color="#d0d7de" stop-opacity="1"/>
<stop offset="0.82" stop-color="#d0d7de" stop-opacity="1"/>
<stop offset="1" stop-color="#d0d7de" stop-opacity="0"/>
</linearGradient></defs>
<line x1="0" y1="12" x2="560" y2="12" stroke="url(#fade)" stroke-width="1.4"/>
<line x1="640" y1="12" x2="1200" y2="12" stroke="url(#fade)" stroke-width="1.4"/>
<line x1="522" y1="12" x2="522" y2="18" stroke="#b6c0ca" stroke-width="1" opacity="0.74"/><line x1="496" y1="12" x2="496" y2="21" stroke="#b6c0ca" stroke-width="1" opacity="0.63"/><line x1="470" y1="12" x2="470" y2="18" stroke="#b6c0ca" stroke-width="1" opacity="0.52"/><line x1="444" y1="12" x2="444" y2="21" stroke="#b6c0ca" stroke-width="1" opacity="0.41"/><line x1="418" y1="12" x2="418" y2="18" stroke="#b6c0ca" stroke-width="1" opacity="0.30"/><line x1="392" y1="12" x2="392" y2="21" stroke="#b6c0ca" stroke-width="1" opacity="0.19"/><line x1="366" y1="12" x2="366" y2="18" stroke="#b6c0ca" stroke-width="1" opacity="0.15"/><line x1="678" y1="12" x2="678" y2="18" stroke="#b6c0ca" stroke-width="1" opacity="0.74"/><line x1="704" y1="12" x2="704" y2="21" stroke="#b6c0ca" stroke-width="1" opacity="0.63"/><line x1="730" y1="12" x2="730" y2="18" stroke="#b6c0ca" stroke-width="1" opacity="0.52"/><line x1="756" y1="12" x2="756" y2="21" stroke="#b6c0ca" stroke-width="1" opacity="0.41"/><line x1="782" y1="12" x2="782" y2="18" stroke="#b6c0ca" stroke-width="1" opacity="0.30"/><line x1="808" y1="12" x2="808" y2="21" stroke="#b6c0ca" stroke-width="1" opacity="0.19"/><line x1="834" y1="12" x2="834" y2="18" stroke="#b6c0ca" stroke-width="1" opacity="0.15"/><g fill="none" stroke="#0f766e" stroke-width="1.3">
<path d="M600 3.5 L608.5 12 L600 20.5 L591.5 12 Z"/>
</g>
<circle cx="600" cy="12" r="1.7" fill="#0f766e"/>
<circle cx="574" cy="12" r="1.6" fill="#7c3aed" opacity="0.55"/>
<circle cx="626" cy="12" r="1.6" fill="#7c3aed" opacity="0.55"/>
</svg>
